<svg enable-background="new 0 0 487.482 487.482" viewBox="0 0 487.482 487.482" xmlns="http://www.w3.org/2000/svg"><path d="m477.482 63.277h-467.482c-5.523 0-10 4.478-10 10v340.928c0 5.522 4.477 10 10 10h467.482c5.522 0 10-4.478 10-10v-340.928c0-5.522-4.477-10-10-10zm-10 20v235.236l-104.018-80.07c-3.364-2.591-7.996-2.773-11.555-.457l-68.298 44.456-134.745-92.417c-3.192-2.189-7.362-2.34-10.706-.384l-118.16 69.136v-175.5zm-447.482 320.928v-122.257l122.786-71.841 135.024 92.608c3.337 2.286 7.723 2.34 11.111.134l67.959-44.235 110.602 85.138v60.453z"/><path d="m280.707 218.281c26.063 0 47.266-21.202 47.266-47.264 0-26.058-21.203-47.258-47.266-47.258-26.062 0-47.264 21.2-47.264 47.258 0 26.062 21.202 47.264 47.264 47.264zm0-74.521c15.034 0 27.266 12.228 27.266 27.258 0 15.033-12.231 27.264-27.266 27.264-15.033 0-27.264-12.23-27.264-27.264 0-15.031 12.231-27.258 27.264-27.258z"/></svg>