<svg fill="none" height="3553" viewBox="0 0 3553 3553" width="3553" xmlns="http://www.w3.org/2000/svg"><g stroke="#000"><g stroke-opacity=".15"><path d="m1770.05 1723.93 38.64 10.36c15.74 4.21 25.07 20.39 20.86 36.13l-10.35 38.63c-4.22 15.74-20.4 25.08-36.13 20.86l-38.64-10.35c-15.74-4.22-25.08-20.39-20.86-36.13l10.35-38.64c4.22-15.73 20.39-25.07 36.13-20.86z"/><path d="m1753.23 1666.55 82.73 14.58c33.99 6 56.69 38.41 50.69 72.41l-14.58 82.72c-6 33.99-38.41 56.69-72.41 50.7l-82.72-14.59c-33.99-5.99-56.69-38.41-50.7-72.4l14.59-82.73c5.99-33.99 38.41-56.69 72.4-50.69z"/><path d="m1725.59 1607.37 131.5 11.51c54.19 4.74 94.28 52.52 89.54 106.71l-11.51 131.5c-4.74 54.19-52.52 94.28-106.71 89.54l-131.5-11.51c-54.19-4.74-94.28-52.52-89.54-106.71l11.51-131.5c4.74-54.19 52.52-94.28 106.71-89.54z"/><path d="m1684.17 1546.58h184c75.94 0 137.5 61.56 137.5 137.5v184c0 75.94-61.56 137.5-137.5 137.5h-184c-75.94 0-137.5-61.56-137.5-137.5v-184c0-75.94 61.56-137.5 137.5-137.5z"/><path d="m1630.89 1488.45 239.09-20.92c98.76-8.64 185.82 64.41 194.46 163.17l20.92 239.09c8.64 98.76-64.42 185.82-163.18 194.46l-239.08 20.92c-98.76 8.64-185.82-64.42-194.46-163.18l-20.92-239.08c-8.64-98.76 64.41-185.82 163.17-194.46z"/></g><g stroke-opacity=".1"><path d="m1563.53 1433.4 295.44-52.09c122.1-21.53 238.54 60 260.07 182.1l52.1 295.44c21.53 122.11-60 238.55-182.11 260.08l-295.44 52.09c-122.1 21.53-238.54-60-260.07-182.1l-52.1-295.45c-21.53-122.1 60-238.54 182.11-260.07z"/><path d="m1482.83 1384.83 351.59-94.21c145.37-38.96 294.8 47.31 333.75 192.68l94.21 351.6c38.95 145.37-47.32 294.79-192.69 333.74l-351.6 94.21c-145.37 38.95-294.79-47.32-333.74-192.68l-94.21-351.6c-38.95-145.37 47.32-294.79 192.69-333.74z"/><path d="m1388.87 1343.75 405.95-147.75c167.89-61.11 353.52 25.45 414.63 193.34l147.75 405.95c61.11 167.89-25.45 353.53-193.34 414.64l-405.95 147.75c-167.89 61.1-353.53-25.46-414.64-193.35l-147.75-405.95c-61.11-167.89 25.46-353.52 193.35-414.63z"/><path d="m1282.16 1312.46 456.78-213c188.95-88.11 413.56-6.36 501.67 182.59l213 456.78c88.11 188.95 6.36 413.56-182.59 501.67l-456.78 213c-188.96 88.11-413.56 6.36-501.67-182.59l-213-456.78c-88.11-188.96-6.36-413.56 182.59-501.67z"/><path d="m1163.54 1294.22 502.3-290c207.82-119.987 473.55-48.783 593.54 159.04l290 502.29c119.98 207.82 48.78 473.55-159.04 593.54l-502.3 290c-207.81 119.98-473.55 48.78-593.53-159.04l-290-502.29c-119.989-207.82-48.785-473.56 159.03-593.54z"/></g><path d="m1033.18 1290.25 540.64-378.558c223.72-156.646 532.06-102.277 688.71 121.438l378.56 540.64c156.64 223.71 102.27 532.06-121.44 688.7l-540.64 378.56c-223.72 156.65-532.06 102.28-688.71-121.43l-378.556-540.64c-156.646-223.72-102.277-532.06 121.436-688.71z" stroke-opacity=".05"/><path d="m894.573 1303.69 569.937-478.236c235.86-197.913 587.51-167.148 785.42 68.716l478.24 569.94c197.91 235.86 167.15 587.51-68.72 785.42l-569.93 478.23c-235.87 197.92-587.52 167.15-785.43-68.71l-478.233-569.94c-197.913-235.86-167.148-587.51 68.716-785.42z" stroke-opacity=".05"/><path d="m747.541 1335.51 588.309-588.313c243.5-243.492 638.27-243.492 881.77 0l588.31 588.313c243.49 243.49 243.49 638.27 0 881.76l-588.31 588.32c-243.5 243.49-638.27 243.49-881.77 0l-588.309-588.32c-243.492-243.49-243.492-638.27 0-881.76z" stroke-opacity=".05"/><path d="m595.214 1388.52 593.936-707.823c245.84-292.979 682.64-331.194 975.62-85.355l707.82 593.938c292.98 245.84 331.2 682.63 85.36 975.61l-593.94 707.83c-245.84 292.98-682.64 331.19-975.62 85.35l-707.821-593.93c-292.979-245.84-331.194-682.64-85.355-975.62z" stroke-opacity=".05"/><path d="m440.017 1463.31 585.043-835.54c242.18-345.863 718.88-429.918 1064.75-187.742l835.53 585.052c345.86 242.17 429.92 718.87 187.74 1064.74l-585.04 835.53c-242.18 345.87-718.88 429.92-1064.75 187.74l-835.531-585.04c-345.863-242.18-429.919-718.88-187.742-1064.74z" stroke-opacity=".05"/></g></svg>